# xmcd
#
# Track frame offsets:
#	150
#	15918
#	32688
#	49170
#	68095
#	83537
#	100485
#	117857
#	134083
#	149937
#	163519
#	181262
#	196159
#	214082
#	231221
#	246923
#	270152
#	287135
#
# Disc length: 4008 seconds
#
# Revision: 1
# Processed by: cddbd v1.5.2PL0 Copyright (c) Steve Scherf et al.
# Submitted via: audiograbber 1.83.01
#
DISCID=010fa612
DTITLE=Seer - Grundlsee
DYEAR=2012
DGENRE=Alternative Rock
TTITLE0=Mei Element
TTITLE1=Jo
TTITLE2=Do für di
TTITLE3=Seensucht noch Grundlsee
TTITLE4=Engel vermisst
TTITLE5=Am Ufer des Himmels
TTITLE6=Wieder zu 2T
TTITLE7=Passt
TTITLE8=Auf mei Art
TTITLE9=Weit z'weit
TTITLE10=Rer'n im Regen
TTITLE11=Die Sun scheint immer
TTITLE12=Panorama
TTITLE13=Kroft der Hoamat
TTITLE14=Wonn da wonn nit wa
TTITLE15=Echo
TTITLE16=In deine Arm
TTITLE17=Zirkus
EXTD=
EXTT0=
EXTT1=
EXTT2=
EXTT3=
EXTT4=
EXTT5=
EXTT6=
EXTT7=
EXTT8=
EXTT9=
EXTT10=
EXTT11=
EXTT12=
EXTT13=
EXTT14=
EXTT15=
EXTT16=
EXTT17=
PLAYORDER=
